<?xml version="1.0" standalone="no"?>
<!DOCTYPE svg PUBLIC "-//W3C//DTD SVG 20010904//EN"
 "http://www.w3.org/TR/2001/REC-SVG-20010904/DTD/svg10.dtd">
<svg version="1.0" xmlns="http://www.w3.org/2000/svg"
 width="300.000000pt" height="124.000000pt" viewBox="0 0 300.000000 124.000000"
 preserveAspectRatio="xMidYMid meet">

<g transform="translate(0.000000,124.000000) scale(0.100000,-0.100000)"
fill="#000000" stroke="none">
<path d="M1283 1230 c-348 -37 -618 -155 -696 -305 -93 -180 102 -367 472
-451 515 -116 1144 17 1273 270 100 196 -140 395 -561 467 -132 22 -369 32
-488 19z m-83 -182 c0 -27 -18 -36 -82 -40 -37 -2 -70 -7 -73 -10 -3 -3 -5
-38 -3 -77 l3 -71 39 31 38 32 34 -39 c18 -21 33 -45 31 -53 -1 -8 -19 -28
-40 -44 l-37 -31 -35 34 -35 34 0 -77 0 -76 36 -7 c20 -4 63 -4 96 -1 94 8
101 19 114 182 17 212 27 219 284 219 149 0 181 -3 212 -18 93 -45 106 -185
23 -240 -14 -9 -56 -24 -94 -32 l-69 -16 5 -74 6 -74 -72 0 -71 0 0 200 c0
193 -1 200 -20 200 -11 0 -29 -9 -40 -20 -18 -18 -20 -33 -20 -130 0 -147 -24
-199 -105 -230 -40 -15 -251 -25 -348 -16 l-77 8 0 217 c0 120 3 221 7 224 3
4 71 7 150 7 108 0 143 -3 143 -12z m803 2 l37 0 0 -225 0 -225 -67 0 -68 0 3
217 c1 120 5 224 7 232 3 8 13 11 28 7 12 -3 39 -6 60 -6z"/>
<path d="M1640 905 l0 -107 28 6 c96 23 96 179 0 202 l-28 6 0 -107z"/>
<path d="M2391 1090 c0 -8 4 -22 9 -30 12 -18 12 -2 0 25 -6 13 -9 15 -9 5z"/>
<path d="M0 260 l0 -60 45 0 c33 0 45 4 45 15 0 10 -10 15 -30 15 -16 0 -30 5
-30 10 0 6 14 10 30 10 17 0 30 5 30 10 0 6 -11 10 -24 10 -14 0 -28 5 -31 10
-4 6 7 10 24 10 21 0 31 5 31 15 0 11 -12 15 -45 15 l-45 0 0 -60z"/>
<path d="M121 306 c-15 -18 -8 -44 14 -51 51 -16 50 -16 35 -25 -8 -5 -21 -5
-31 1 -19 10 -35 -4 -24 -21 10 -15 71 -12 85 5 18 21 5 44 -30 57 -32 11 -32
23 1 23 32 0 26 20 -7 23 -19 2 -36 -3 -43 -12z"/>
<path d="M230 260 c0 -60 14 -79 28 -39 5 11 11 20 15 20 42 -5 65 25 47 59
-8 15 -21 20 -50 20 l-40 0 0 -60z m63 15 c1 -5 -6 -11 -15 -13 -11 -2 -18 3
-18 13 0 17 30 18 33 0z"/>
<path d="M340 260 c0 -47 3 -60 15 -60 12 0 15 13 15 60 0 47 -3 60 -15 60
-12 0 -15 -13 -15 -60z"/>
<path d="M440 269 c12 -29 24 -57 26 -61 13 -21 33 -3 53 48 25 66 25 64 7 64
-8 0 -20 -16 -27 -35 -16 -43 -22 -44 -34 -3 -6 19 -18 34 -28 36 -16 3 -16 0
3 -49z"/>
<path d="M560 260 c0 -47 3 -60 15 -60 12 0 15 13 15 60 0 47 -3 60 -15 60
-12 0 -15 -13 -15 -60z"/>
<path d="M621 306 c-15 -18 -8 -44 14 -51 51 -16 50 -16 35 -25 -8 -5 -21 -5
-31 1 -11 6 -20 5 -24 -1 -11 -18 5 -30 40 -30 64 0 70 59 8 75 -28 7 -23 20
8 20 32 0 26 20 -7 23 -19 2 -36 -3 -43 -12z"/>
<path d="M738 263 c-24 -54 -21 -80 5 -54 14 14 67 15 67 1 0 -5 7 -10 16 -10
11 0 14 5 10 18 -45 122 -61 130 -98 45z m52 -4 c0 -5 -7 -9 -15 -9 -9 0 -12
6 -9 15 6 15 24 11 24 -6z"/>
<path d="M895 296 c-17 -25 -14 -57 7 -83 12 -15 57 -17 78 -3 12 8 12 10 -2
15 -10 4 -21 4 -27 1 -9 -6 -41 19 -41 32 1 20 22 36 47 37 41 0 34 19 -9 23
-30 3 -40 -1 -53 -22z"/>
<path d="M1016 304 c-36 -35 -7 -104 43 -104 42 0 61 18 61 58 0 21 -5 43 -12
50 -17 17 -74 15 -92 -4z m62 -13 c8 -4 12 -19 10 -32 -2 -18 -9 -24 -28 -24
-28 0 -39 27 -20 50 14 17 20 18 38 6z"/>
<path d="M1150 259 c0 -44 3 -59 13 -56 6 2 12 16 12 30 -1 35 5 34 30 -3 32
-47 45 -39 45 30 0 45 -3 60 -14 60 -9 0 -16 -12 -18 -32 l-3 -33 -20 33 c-31
51 -45 42 -45 -29z"/>
<path d="M1281 306 c-18 -22 3 -56 35 -56 16 0 24 -5 21 -12 -2 -7 -12 -12
-22 -10 -9 2 -24 1 -33 -3 -14 -5 -14 -7 -2 -15 21 -14 64 -12 78 2 22 22 14
48 -18 59 -34 13 -41 32 -8 27 11 -2 23 3 25 10 7 17 -61 16 -76 -2z"/>
<path d="M1390 272 c0 -55 12 -72 51 -72 35 0 50 20 57 75 4 37 2 45 -12 45
-11 0 -16 -9 -16 -29 0 -42 -10 -61 -31 -61 -16 0 -19 8 -19 45 0 33 -4 45
-15 45 -11 0 -15 -12 -15 -48z"/>
<path d="M1520 260 l0 -60 45 0 c33 0 45 4 45 15 0 10 -10 15 -30 15 -29 0
-30 2 -30 45 0 33 -4 45 -15 45 -12 0 -15 -13 -15 -60z"/>
<path d="M1600 310 c0 -5 7 -10 14 -10 11 0 16 -14 18 -47 4 -64 28 -71 28 -8
0 38 4 48 20 52 37 10 20 23 -30 23 -27 0 -50 -4 -50 -10z"/>
<path d="M1718 263 c-24 -54 -21 -80 5 -54 14 14 67 15 67 1 0 -5 7 -10 15
-10 20 0 19 5 -7 67 -29 71 -48 70 -80 -4z m52 2 c0 -8 -7 -15 -15 -15 -9 0
-12 6 -9 15 4 8 10 15 15 15 5 0 9 -7 9 -15z"/>
<path d="M1840 260 c0 -47 3 -60 15 -60 10 0 15 10 15 33 l0 32 26 -32 c14
-18 30 -33 35 -33 5 0 9 27 9 60 0 49 -3 60 -16 60 -13 0 -15 -7 -10 -30 3
-16 2 -30 -2 -30 -4 0 -16 14 -25 30 -30 50 -47 39 -47 -30z"/>
<path d="M1960 311 c0 -5 9 -11 20 -14 16 -4 20 -14 20 -51 0 -34 4 -46 15
-46 11 0 15 12 15 50 0 38 4 50 15 50 8 0 15 5 15 10 0 6 -22 10 -50 10 -27 0
-50 -4 -50 -9z"/>
<path d="M2081 306 c-18 -22 3 -56 34 -56 14 0 25 -5 25 -11 0 -7 -12 -10 -30
-7 -17 3 -31 0 -34 -8 -10 -25 64 -34 84 -9 19 23 7 47 -30 60 -26 10 -31 14
-19 19 9 4 21 6 27 4 5 -2 12 2 14 7 5 17 -57 18 -71 1z"/>
<path d="M2230 260 c0 -47 3 -60 15 -60 8 0 15 7 15 15 0 8 6 15 14 15 8 0 24
8 37 19 21 16 22 22 11 45 -10 22 -18 26 -52 26 l-40 0 0 -60z m68 18 c-7 -19
-38 -22 -38 -4 0 10 9 16 21 16 12 0 19 -5 17 -12z"/>
<path d="M2351 268 c11 -29 23 -56 25 -60 13 -21 34 -3 54 46 17 44 25 53 41
49 15 -4 19 -14 19 -54 0 -37 4 -49 15 -49 11 0 15 12 15 46 0 37 4 47 20 51
42 11 17 23 -49 23 l-69 0 -12 -35 c-13 -40 -25 -38 -35 5 -5 21 -13 30 -26
30 -18 0 -18 -1 2 -52z"/>
<path d="M2650 260 l0 -60 45 0 c33 0 45 4 45 15 0 10 -10 15 -30 15 -29 0
-30 2 -30 45 0 33 -4 45 -15 45 -12 0 -15 -13 -15 -60z"/>
<path d="M2730 310 c0 -5 7 -10 14 -10 11 0 16 -14 18 -47 4 -64 28 -71 28 -8
0 38 4 48 20 52 37 10 20 23 -30 23 -27 0 -50 -4 -50 -10z"/>
<path d="M2850 260 l0 -60 33 0 c42 0 67 26 67 68 0 36 -22 52 -69 52 l-31 0
0 -60z m68 1 c-2 -15 -10 -27 -20 -29 -14 -3 -18 4 -18 31 0 31 3 34 21 30 15
-4 19 -12 17 -32z"/>
<path d="M2567 224 c-8 -8 1 -24 14 -24 5 0 9 7 9 15 0 15 -12 20 -23 9z"/>
<path d="M2970 215 c0 -9 5 -15 11 -13 6 2 11 8 11 13 0 5 -5 11 -11 13 -6 2
-11 -4 -11 -13z"/>
<path d="M976 98 c-3 -13 -5 -34 -5 -48 1 -15 5 -7 10 19 9 47 6 68 -5 29z"/>
<path d="M1653 108 c-1 -7 -4 -29 -7 -48 -5 -24 -4 -29 2 -15 15 35 23 75 14
75 -5 0 -9 -6 -9 -12z"/>
<path d="M1833 108 c-1 -7 -4 -29 -7 -48 -5 -29 -4 -27 9 10 18 53 17 50 7 50
-5 0 -9 -6 -9 -12z"/>
<path d="M907 73 c-9 -51 -2 -53 11 -3 5 22 6 40 2 40 -4 0 -10 -17 -13 -37z"/>
<path d="M1306 74 c-4 -20 -5 -38 -3 -40 3 -3 8 11 11 32 4 20 5 38 3 40 -3 3
-8 -11 -11 -32z"/>
<path d="M1017 59 c5 -25 2 -35 -12 -46 -11 -7 -14 -13 -9 -13 29 0 48 70 24
85 -6 4 -7 -6 -3 -26z"/>
<path d="M1070 58 c0 -36 4 -35 14 5 4 16 2 27 -4 27 -5 0 -10 -14 -10 -32z"/>
<path d="M1112 63 c-1 -22 0 -24 8 -13 12 18 13 40 2 40 -4 0 -9 -12 -10 -27z"/>
<path d="M1142 58 c-3 -37 2 -35 12 5 3 15 3 27 -2 27 -4 0 -9 -14 -10 -32z"/>
<path d="M1185 79 c-4 -6 -5 -12 -2 -15 2 -3 7 2 10 11 7 17 1 20 -8 4z"/>
<path d="M1211 74 c0 -11 3 -14 6 -6 3 7 2 16 -1 19 -3 4 -6 -2 -5 -13z"/>
<path d="M1378 67 c-3 -19 -2 -25 4 -19 6 6 8 18 6 28 -3 14 -5 12 -10 -9z"/>
<path d="M1410 76 c0 -8 -3 -21 -6 -30 -3 -9 -2 -16 4 -16 5 0 12 13 14 30 3
17 1 30 -4 30 -4 0 -8 -6 -8 -14z"/>
<path d="M1438 74 c-3 -12 -2 -28 3 -35 12 -20 16 -8 9 26 -5 27 -6 28 -12 9z"/>
<path d="M1527 76 c-4 -10 -7 -25 -6 -34 0 -11 4 -9 10 7 5 13 8 29 6 35 -2 5
-6 2 -10 -8z"/>
<path d="M1562 63 c-1 -22 0 -24 8 -13 12 18 13 40 2 40 -4 0 -9 -12 -10 -27z"/>
<path d="M1866 64 c-4 -14 -5 -29 -2 -31 3 -3 8 7 12 21 3 15 4 29 1 32 -2 3
-8 -7 -11 -22z"/>
<path d="M1996 68 c-8 -33 -7 -38 6 -38 6 0 9 3 5 6 -3 3 -2 17 3 30 5 13 6
24 1 24 -5 0 -11 -10 -15 -22z"/>
<path d="M2041 78 c0 -9 -4 -25 -7 -35 -5 -17 -5 -17 6 0 6 10 9 25 7 35 -4
15 -5 15 -6 0z"/>
<path d="M2066 64 c-4 -14 -5 -29 -2 -31 3 -3 8 7 12 21 3 15 4 29 1 32 -2 3
-8 -7 -11 -22z"/>
<path d="M2096 64 c-4 -14 -5 -28 -3 -31 3 -2 8 8 11 23 4 14 5 28 3 31 -3 2
-8 -8 -11 -23z"/>
<path d="M1344 65 c-3 -8 -4 -20 -2 -27 3 -7 7 -1 10 15 6 29 1 36 -8 12z"/>
<path d="M1490 61 c-7 -15 -7 -22 2 -27 7 -4 10 -4 6 1 -4 4 -3 16 3 26 5 11
7 19 5 19 -3 0 -10 -9 -16 -19z"/>
<path d="M1610 61 c-6 -11 -6 -22 -1 -25 5 -3 11 5 13 19 6 30 2 32 -12 6z"/>
<path d="M1690 62 c6 -13 14 -21 18 -18 3 4 -2 14 -12 24 -18 16 -18 16 -6 -6z"/>
<path d="M1790 61 c-7 -15 -7 -22 2 -27 7 -4 10 -4 6 1 -4 4 -3 16 3 26 5 11
7 19 5 19 -3 0 -10 -9 -16 -19z"/>
<path d="M1910 50 c0 -11 4 -20 9 -20 5 0 7 9 4 20 -3 11 -7 20 -9 20 -2 0 -4
-9 -4 -20z"/>
<path d="M1963 55 c-3 -9 -3 -18 -1 -21 3 -3 8 4 11 16 6 23 -1 27 -10 5z"/>
<path d="M1172 45 c4 -5 3 -14 -3 -21 -7 -8 -7 -14 1 -19 6 -4 9 -1 8 7 -2 9
6 12 26 11 16 -1 25 2 20 6 -12 11 -61 26 -52 16z"/>
</g>
</svg>
